<svg xmlns="http://www.w3.org/2000/svg" width="1180" height="680" viewBox="0 0 1180 680">
  <rect width="1180" height="680" fill="#111"/>
  <rect x="45" y="35" width="1090" height="610" rx="15" fill="#202124" stroke="#555"/>
  <text x="72" y="72" font-family="Segoe UI,Malgun Gothic,Arial" font-size="20" fill="#eee">이미지 2 편집</text><text x="1005" y="72" font-family="Segoe UI,Malgun Gothic,Arial" font-size="13" fill="#aaa">1080 × 1920</text>
  <rect x="72" y="94" width="1036" height="420" fill="#151515"/>
  <rect x="350" y="108" width="480" height="392" fill="#896f66"/>
  <circle cx="590" cy="265" r="82" fill="#ebc5a7"/><rect x="528" y="335" width="124" height="145" rx="20" fill="#3b3038"/>
  <rect x="350" y="108" width="480" height="52" fill="#000" opacity=".56"/><rect x="350" y="448" width="480" height="52" fill="#000" opacity=".56"/><rect x="350" y="160" width="64" height="288" fill="#000" opacity=".56"/><rect x="766" y="160" width="64" height="288" fill="#000" opacity=".56"/>
  <rect x="414" y="160" width="352" height="288" fill="none" stroke="#fff" stroke-width="3"/>
  <line x1="531" y1="160" x2="531" y2="448" stroke="#fff" opacity=".42"/><line x1="649" y1="160" x2="649" y2="448" stroke="#fff" opacity=".42"/><line x1="414" y1="256" x2="766" y2="256" stroke="#fff" opacity=".42"/><line x1="414" y1="352" x2="766" y2="352" stroke="#fff" opacity=".42"/>
  <g fill="#050505" stroke="#fff" stroke-width="1">
    <rect x="568" y="160" width="44" height="9" rx="3"/><rect x="568" y="439" width="44" height="9" rx="3"/>
    <rect x="414" y="282" width="9" height="44" rx="3"/><rect x="757" y="282" width="9" height="44" rx="3"/>
    <rect x="414" y="160" width="13" height="13" rx="3"/><rect x="753" y="160" width="13" height="13" rx="3"/>
    <rect x="414" y="435" width="13" height="13" rx="3"/><rect x="753" y="435" width="13" height="13" rx="3"/>
  </g>
  <g font-family="Segoe UI,Malgun Gothic,Arial" font-size="12" fill="#eee">
    <rect x="72" y="520" width="72" height="31" rx="7" fill="#303134" stroke="#5f6368"/><text x="88" y="540">↶ 90°</text>
    <rect x="152" y="520" width="72" height="31" rx="7" fill="#303134" stroke="#5f6368"/><text x="168" y="540">↷ 90°</text>
    <rect x="232" y="520" width="72" height="31" rx="7" fill="#35435d" stroke="#8ab4f8"/><text x="268" y="540" text-anchor="middle">좌우반전</text>
    <rect x="312" y="520" width="72" height="31" rx="7" fill="#303134" stroke="#5f6368"/><text x="348" y="540" text-anchor="middle">상하반전</text>
    <text x="395" y="540" fill="#9aa0a6">90° 회전 • 좌우반전</text>
    <text x="525" y="540" fill="#ccc">비율</text><rect x="575" y="520" width="92" height="31" rx="7" fill="#303134" stroke="#5f6368"/><text x="621" y="540" text-anchor="middle">Free</text>
    <rect x="683" y="520" width="32" height="31" rx="7" fill="#303134" stroke="#5f6368"/><text x="699" y="540" text-anchor="middle">−</text>
    <text x="745" y="540" fill="#cfcfcf" text-anchor="middle">100%</text>
    <rect x="775" y="520" width="32" height="31" rx="7" fill="#303134" stroke="#5f6368"/><text x="791" y="540" text-anchor="middle">+</text>
    <rect x="817" y="520" width="42" height="31" rx="7" fill="#303134" stroke="#5f6368"/><text x="838" y="540" text-anchor="middle">Fit</text>
    <rect x="873" y="520" width="92" height="31" rx="7" fill="#303134" stroke="#5f6368"/><text x="919" y="540" text-anchor="middle">Crop 초기화</text>
    <rect x="975" y="520" width="92" height="31" rx="7" fill="#303134" stroke="#5f6368"/><text x="1021" y="540" text-anchor="middle">전체 초기화</text>
    <rect x="900" y="566" width="72" height="31" rx="7" fill="#303134" stroke="#5f6368"/><text x="936" y="586" text-anchor="middle">취소</text>
    <rect x="982" y="566" width="126" height="31" rx="7" fill="#1a73e8"/><text x="1045" y="586" fill="#fff" text-anchor="middle">적용</text>
  </g>
  <text x="72" y="586" font-family="Segoe UI,Malgun Gothic,Arial" font-size="12" fill="#aaa">Crop 내부: 이동 • 검정 막대/모서리: 크기 조절 • 바깥: 새 Crop • 휠: 확대 • Space/휠 드래그: 이동</text>
  <text x="72" y="622" font-family="Segoe UI,Malgun Gothic,Arial" font-size="12" fill="#8f8f8f">최대 16배까지 확대해 픽셀 단위로 다듬을 수 있으며, 원본 파일은 수정하지 않습니다.</text>
</svg>