<svg xmlns="http://www.w3.org/2000/svg" width="1180" height="680" viewBox="0 0 1180 680">
  <rect width="1180" height="680" fill="#171717"/>
  <rect x="45" y="30" width="500" height="620" rx="14" fill="#292929" stroke="#4d4d4d"/>
  <rect x="45" y="30" width="500" height="42" rx="14" fill="#343434"/>
  <text x="68" y="58" font-family="Segoe UI,Malgun Gothic,Arial" font-size="20" fill="#e8e8e8">Multi Stitch Images</text>
  <circle cx="526" cy="51" r="6" fill="#7fc8ff"/>
  <g font-family="Segoe UI,Malgun Gothic,Arial" font-size="13" fill="#d8d8d8">
    <text x="68" y="98">layout_mode</text><rect x="205" y="80" width="310" height="26" rx="13" fill="#202020" stroke="#575757"/><text x="465" y="98">grid</text>
    <text x="68" y="130">direction</text><rect x="205" y="112" width="310" height="26" rx="13" fill="#202020" stroke="#575757"/><text x="460" y="130">right</text>
    <text x="68" y="162">match_image_size</text><rect x="390" y="144" width="125" height="26" rx="13" fill="#202020" stroke="#575757"/><text x="441" y="162">true</text>
    <text x="68" y="194">grid_columns</text><rect x="205" y="176" width="310" height="26" rx="13" fill="#202020" stroke="#575757"/><text x="482" y="194">3</text>
    <text x="68" y="226">spacing_width</text><rect x="205" y="208" width="310" height="26" rx="13" fill="#202020" stroke="#575757"/><text x="482" y="226">8</text>
    <text x="68" y="258">spacing_color</text><rect x="205" y="240" width="310" height="26" rx="13" fill="#202020" stroke="#575757"/><text x="453" y="258">custom</text>
  </g>
  <rect x="68" y="282" width="139" height="30" rx="7" fill="#3b3b3b" stroke="#626262"/><text x="99" y="302" font-family="Segoe UI,Malgun Gothic,Arial" font-size="12" fill="#fff">이미지 추가…</text>
  <rect x="218" y="282" width="120" height="30" rx="7" fill="#3b3b3b" stroke="#626262"/><text x="252" y="302" font-family="Segoe UI,Malgun Gothic,Arial" font-size="12" fill="#fff">전체 삭제</text>
  <rect x="349" y="282" width="166" height="30" rx="7" fill="#3b3b3b" stroke="#626262"/><text x="370" y="302" font-family="Segoe UI,Malgun Gothic,Arial" font-size="12" fill="#fff">사용자 색상: #6A55CC</text>
  <text x="68" y="338" font-family="Segoe UI,Malgun Gothic,Arial" font-size="12" fill="#aaa">이미지 5장 • 약 1792×1032 • 이미지 클릭 편집 / ≡ 드래그 순서변경</text>
  <g font-family="Segoe UI,Malgun Gothic,Arial" font-size="11">
    <rect x="68" y="352" width="137" height="92" fill="#121212" stroke="#777"/><rect x="74" y="358" width="125" height="80" fill="#5e7890"/><circle cx="137" cy="391" r="20" fill="#e7c2a6"/><rect x="74" y="358" width="24" height="18" fill="#000" opacity=".72"/><text x="82" y="371" fill="#fff">1</text>
    <rect x="215" y="352" width="137" height="92" fill="#121212" stroke="#8ab4f8" stroke-width="3"/><rect x="221" y="358" width="125" height="80" fill="#997b70"/><circle cx="283" cy="391" r="20" fill="#ecc7aa"/><rect x="221" y="358" width="24" height="18" fill="#000" opacity=".72"/><text x="229" y="371" fill="#fff">2</text><text x="252" y="371" fill="#f6b73c">✂ 90°</text>
    <rect x="362" y="352" width="137" height="92" fill="#121212" stroke="#777"/><rect x="368" y="358" width="125" height="80" fill="#657b61"/><circle cx="431" cy="391" r="20" fill="#e7c0a4"/><rect x="368" y="358" width="24" height="18" fill="#000" opacity=".72"/><text x="376" y="371" fill="#fff">3</text>
    <rect x="68" y="454" width="137" height="92" fill="#121212" stroke="#777"/><rect x="74" y="460" width="125" height="80" fill="#77658c"/><circle cx="137" cy="493" r="20" fill="#e2bea2"/><rect x="74" y="460" width="24" height="18" fill="#000" opacity=".72"/><text x="82" y="473" fill="#fff">4</text><text x="105" y="473" fill="#f6b73c">H</text>
    <rect x="215" y="454" width="137" height="92" fill="#121212" stroke="#777"/><rect x="221" y="460" width="125" height="80" fill="#806b57"/><circle cx="283" cy="493" r="20" fill="#e9c6aa"/><rect x="221" y="460" width="24" height="18" fill="#000" opacity=".72"/><text x="229" y="473" fill="#fff">5</text>
    <g fill="#000" opacity=".78">
      <rect x="124" y="422" width="26" height="18"/><rect x="271" y="422" width="26" height="18"/><rect x="418" y="422" width="26" height="18"/>
      <rect x="124" y="524" width="26" height="18"/><rect x="271" y="524" width="26" height="18"/>
    </g>
    <g fill="#fff" text-anchor="middle" font-size="14">
      <text x="137" y="436">≡</text><text x="284" y="436">≡</text><text x="431" y="436">≡</text><text x="137" y="538">≡</text><text x="284" y="538">≡</text>
    </g>
  </g>
  <text x="68" y="578" font-family="Segoe UI,Malgun Gothic,Arial" font-size="13" fill="#cfcfcf">Ctrl+V → 이미지 클릭 편집 → ≡ 드래그 순서변경 → Grid/Strip → Preview Image</text>
  <text x="68" y="604" font-family="Segoe UI,Malgun Gothic,Arial" font-size="12" fill="#8f8f8f">파란 테두리: 드래그 대상 • 주황 표시: Crop/회전/반전 • ≡: 순서변경 핸들</text>
  <path d="M565 335 C615 335 625 335 665 335" stroke="#77bdf2" stroke-width="4" fill="none"/><circle cx="665" cy="335" r="7" fill="#77bdf2"/>
  <rect x="665" y="120" width="470" height="420" rx="14" fill="#292929" stroke="#4d4d4d"/><rect x="665" y="120" width="470" height="42" rx="14" fill="#343434"/><text x="688" y="148" font-family="Segoe UI,Malgun Gothic,Arial" font-size="20" fill="#e8e8e8">Preview Image</text>
  <rect x="700" y="195" width="400" height="300" fill="#6A55CC"/>
  <g>
    <rect x="708" y="203" width="124" height="136" fill="#5e7890"/><circle cx="770" cy="255" r="23" fill="#e7c2a6"/>
    <rect x="838" y="203" width="124" height="136" fill="#997b70"/><circle cx="900" cy="255" r="23" fill="#ecc7aa"/>
    <rect x="968" y="203" width="124" height="136" fill="#657b61"/><circle cx="1030" cy="255" r="23" fill="#e7c0a4"/>
    <rect x="708" y="347" width="124" height="140" fill="#77658c"/><circle cx="770" cy="398" r="23" fill="#e2bea2"/>
    <rect x="838" y="347" width="124" height="140" fill="#806b57"/><circle cx="900" cy="398" r="23" fill="#e9c6aa"/>
  </g>
  <text x="807" y="523" font-family="Segoe UI,Malgun Gothic,Arial" font-size="13" fill="#aaa">Grid 모드 • 3열 • 사용자 지정 간격 색상</text>
</svg>